<svg width="429" height="54.61755984394327" viewBox="0 0 384.5973041119739 48.96449014721441" class="css-1j8o68f"><defs id="SvgjsDefs1446"></defs><g id="SvgjsG1447" featurekey="nameLeftFeature-0" transform="matrix(0.9715175954716955,0,0,0.9715175954716955,-2.331640932016139,-0.6582092926375882)" fill="#04bf33"><path d="M21.4 40 l-5.12 0 l0 -11.44 l-8.76 0 l0 11.44 l-5.12 0 l0 -28 l5.12 0 l0 11.44 l8.76 0 l0 -11.44 l5.12 0 l0 28 z M39.418 17.12 l-3.68 0 l0 17.76 l3.68 0 l0 5.12 l-12.48 0 l0 -5.12 l3.68 0 l0 -17.76 l-3.68 0 l0 -5.12 l12.48 0 l0 5.12 z M49.955999999999996 12 l9 0 c0.68 0 1.32 0.28 1.8 0.76 l2.48 2.44 c0.48 0.48 0.72 1.12 0.72 1.8 l0 5.04 l-5.12 0 l0 -3.96 l-0.92 -0.96 l-6.88 0 l-0.96 0.96 l0 3.44 l0.8 1 l9.24 2.16 c0.56 0.16 1.04 0.48 1.4 0.92 l1.88 2.4 c0.36 0.44 0.56 1 0.56 1.56 l0 5.44 c0 0.68 -0.24 1.32 -0.72 1.8 l-2.48 2.44 c-0.48 0.48 -1.12 0.76 -1.8 0.76 l-9 0 c-0.68 0 -1.32 -0.28 -1.8 -0.76 l-2.44 -2.44 c-0.48 -0.48 -0.76 -1.12 -0.76 -1.8 l0 -5.04 l5.12 0 l0 3.96 l0.96 0.96 l6.88 0 l0.92 -0.96 l0 -3.44 l-0.76 -1 l-9.24 -2.16 c-0.56 -0.16 -1.08 -0.48 -1.44 -0.92 l-1.88 -2.4 c-0.36 -0.44 -0.56 -1 -0.56 -1.56 l0 -5.44 c0 -0.68 0.28 -1.32 0.76 -1.8 l2.44 -2.44 c0.48 -0.48 1.12 -0.76 1.8 -0.76 z M87.69399999999999 17.12 l-6.56 0 l0 22.88 l-5.12 0 l0 -22.88 l-6.52 0 l0 -5.12 l18.2 0 l0 5.12 z M98.79199999999999 12 l7.88 0 c0.68 0 1.36 0.28 1.84 0.76 l3 3 c0.48 0.48 0.72 1.12 0.72 1.8 l0 16.88 c0 0.68 -0.24 1.32 -0.72 1.8 l-3 3 c-0.48 0.48 -1.16 0.76 -1.84 0.76 l-7.88 0 c-0.68 0 -1.32 -0.28 -1.8 -0.76 l-3 -3 c-0.48 -0.48 -0.76 -1.12 -0.76 -1.8 l0 -16.88 c0 -0.68 0.28 -1.32 0.76 -1.8 l3 -3 c0.48 -0.48 1.12 -0.76 1.8 -0.76 z M99.87199999999999 17.12 l-1.52 1.48 l0 14.76 l1.52 1.52 l5.76 0 l1.48 -1.52 l0 -14.76 l-1.48 -1.48 l-5.76 0 z M117.77 12 l14 0 c0.68 0 1.32 0.28 1.8 0.76 l2.48 2.44 c0.48 0.48 0.72 1.12 0.72 1.8 l0 8.2 c0 0.68 -0.24 1.32 -0.72 1.8 l-2.32 2.28 l3.04 10.72 l-5.32 0 l-2.6 -9.08 l-0.96 -0.72 l-5 0 l0 9.8 l-5.12 0 l0 -28 z M122.88999999999999 17.12 l0 7.96 l7.84 0 l0.92 -0.96 l0 -6.04 l-0.92 -0.96 l-7.84 0 z M163.38799999999998 12 l-3.52 15.92 c-0.12 0.56 -0.44 1.08 -0.88 1.44 l-2.4 1.92 c-0.36 0.24 -0.76 0.44 -1.16 0.52 l0 8.2 l-5.12 0 l0 -8.2 c-0.44 -0.08 -0.84 -0.28 -1.16 -0.52 l-2.4 -1.92 c-0.48 -0.36 -0.76 -0.88 -0.92 -1.44 l-3.52 -15.92 l5.24 0 l3.08 13.92 l1 0.8 l2.44 0 l1 -0.8 l3.08 -13.92 l5.24 0 z"></path></g><g id="SvgjsG1448" featurekey="inlineSymbolFeature-0" transform="matrix(0.5440498905246046,0,0,0.5440498905246046,163.86279202167788,-2.720249452623023)" fill="#108a08"><path xmlns="http://www.w3.org/2000/svg" d="M58.688,72.621c6.505-11.475,14.366-23.337,18.188-37.364c2.32-8.497-0.622-16.024-4.866-20.845  C67.534,9.333,61.226,5.977,52.411,5h-4.763c-14.681,1.962-23.119,9.464-25.339,22.479v3.934c0.526,3.727,1.702,7.764,3.03,11.432  c3.904,10.77,8.718,20.57,13.965,29.776H58.688L58.688,72.621z M46.341,70.027c-0.457-13.48-1.459-27.004-1.733-40.342  c0.92,3.528,6.208,10.597,11.16,6.725c0.429-0.337,0.778-1.034,1.079-0.863c-2.089,11.809-4.776,23.102-7.363,34.48H46.341  L46.341,70.027z M74.824,27.856c0.415,5.552-1.519,9.742-3.254,13.928c-4.126,9.974-9.463,19.728-14.619,28.243h-4.977  c2.674-11.295,5.579-23.856,7.688-36.114c0.415-2.442,1.822-6.146-0.976-6.434c-1.044,1.34-1.615,3.045-2.601,4.703  c-0.758,1.283-2.089,3.531-4.112,3.46c-1.477-0.052-2.586-1.681-3.358-2.789c-1.798-2.588-2.829-5.238-3.787-8.162  c-0.443-1.347-0.561-3.548-2.711-3.363c-0.474,1.875-0.208,3.891-0.104,5.86c0.733,14.248,1.418,28.735,2.055,42.838h-3.133  c-4.513-8.957-9.462-18.288-12.886-28.334c-1.172-3.42-2.58-7.062-2.815-10.857c-0.505-7.996,3.199-13.33,7.795-17.189  c4.081-3.434,9.6-6.149,16.994-6.149c3.884,0,7.225,0.837,10.07,1.917C67.651,12.297,74.164,19.143,74.824,27.856 M39.473,75.709  h19.014 M39.328,85.161h19.304c0.021,0.896,0.011,1.76-0.062,2.573H39.39C39.317,86.921,39.307,86.057,39.328,85.161z   M39.473,75.709h19.014c-0.114,0.969-0.132,1.982-0.121,3.006H39.594C39.604,77.691,39.587,76.678,39.473,75.709z M58.421,80.651  c0.042,0.864,0.09,1.723,0.135,2.573H39.404c0.045-0.851,0.093-1.709,0.135-2.573H58.421z M58.214,89.671  c-0.101,0.353-0.193,0.712-0.339,1.03c-1.308,2.843-4.921,4.295-8.895,4.299c-3.974-0.004-7.587-1.456-8.895-4.299  c-0.145-0.318-0.238-0.678-0.339-1.03H58.214z"></path></g><g id="SvgjsG1449" featurekey="nameRightFeature-0" transform="matrix(0.9711545387612026,0,0,0.9711545387612026,216.1544329595121,-0.6538526128041493)" fill="#04bf33"><path d="M15.138 12 l9 0 c0.68 0 1.32 0.28 1.8 0.76 l2.48 2.44 c0.48 0.48 0.72 1.12 0.72 1.8 l0 5.04 l-5.12 0 l0 -3.96 l-0.92 -0.96 l-6.88 0 l-0.96 0.96 l0 15.84 l0.96 0.96 l6.88 0 l0.92 -0.96 l0 -3.96 l5.12 0 l0 5.04 c0 0.68 -0.24 1.32 -0.72 1.8 l-2.48 2.44 c-0.48 0.48 -1.12 0.76 -1.8 0.76 l-9 0 c-0.68 0 -1.32 -0.28 -1.8 -0.76 l-2.44 -2.44 c-0.48 -0.48 -0.76 -1.12 -0.76 -1.8 l0 -18 c0 -0.68 0.28 -1.32 0.76 -1.8 l2.44 -2.44 c0.48 -0.48 1.12 -0.76 1.8 -0.76 z M40.236 12 l7.88 0 c0.68 0 1.36 0.28 1.84 0.76 l3 3 c0.48 0.48 0.72 1.12 0.72 1.8 l0 16.88 c0 0.68 -0.24 1.32 -0.72 1.8 l-3 3 c-0.48 0.48 -1.16 0.76 -1.84 0.76 l-7.88 0 c-0.68 0 -1.32 -0.28 -1.8 -0.76 l-3 -3 c-0.48 -0.48 -0.76 -1.12 -0.76 -1.8 l0 -16.88 c0 -0.68 0.28 -1.32 0.76 -1.8 l3 -3 c0.48 -0.48 1.12 -0.76 1.8 -0.76 z M41.315999999999995 17.12 l-1.52 1.48 l0 14.76 l1.52 1.52 l5.76 0 l1.48 -1.52 l0 -14.76 l-1.48 -1.48 l-5.76 0 z M79.33399999999999 12 l0 25.44 c0 1.12 -0.72 2.12 -1.84 2.44 c-0.96 0.32 -2.08 0.08 -2.84 -1.04 l-10.32 -15.72 l0 16.88 l-5.12 0 l0 -25.44 c0 -1.12 0.76 -2.12 1.84 -2.44 s2.24 0.08 2.88 1.04 l10.28 15.72 l0 -16.88 l5.12 0 z M103.072 17.12 l-6.56 0 l0 22.88 l-5.12 0 l0 -22.88 l-6.52 0 l0 -5.12 l18.2 0 l0 5.12 z M125.16999999999999 17.12 l-11.44 0 l0 6.32 l11.44 0 l0 5.12 l-11.44 0 l0 6.32 l11.44 0 l0 5.12 l-16.56 0 l0 -28 l16.56 0 l0 5.12 z M135.708 12 l9 0 c0.68 0 1.32 0.28 1.8 0.76 l2.48 2.44 c0.48 0.48 0.72 1.12 0.72 1.8 l0 5.04 l-5.12 0 l0 -3.96 l-0.92 -0.96 l-6.88 0 l-0.96 0.96 l0 3.44 l0.8 1 l9.24 2.16 c0.56 0.16 1.04 0.48 1.4 0.92 l1.88 2.4 c0.36 0.44 0.56 1 0.56 1.56 l0 5.44 c0 0.68 -0.24 1.32 -0.72 1.8 l-2.48 2.44 c-0.48 0.48 -1.12 0.76 -1.8 0.76 l-9 0 c-0.68 0 -1.32 -0.28 -1.8 -0.76 l-2.44 -2.44 c-0.48 -0.48 -0.76 -1.12 -0.76 -1.8 l0 -5.04 l5.12 0 l0 3.96 l0.96 0.96 l6.88 0 l0.92 -0.96 l0 -3.44 l-0.76 -1 l-9.24 -2.16 c-0.56 -0.16 -1.08 -0.48 -1.44 -0.92 l-1.88 -2.4 c-0.36 -0.44 -0.56 -1 -0.56 -1.56 l0 -5.44 c0 -0.68 0.28 -1.32 0.76 -1.8 l2.44 -2.44 c0.48 -0.48 1.12 -0.76 1.8 -0.76 z M173.446 17.12 l-6.56 0 l0 22.88 l-5.12 0 l0 -22.88 l-6.52 0 l0 -5.12 l18.2 0 l0 5.12 z"></path></g></svg>